# xmcd CD database file
#
# Track frame offsets:
#	150
#	21525
#	45600
#	62400
#	77400
#	97350
#
# Disc length: 1617 seconds
#
# Revision: 0
# Processed by: cddbd v1.5PL3 Copyright (c) Steve Scherf et al.
# Submitted via: CDex 1.51
#
DISCID=48064f06
DTITLE=SJV-SC - VIRGIN SNOW　p-r-v-i-e-w
DYEAR=2000
DGENRE=Soundtrack
TTITLE0=緒方理奈
TTITLE1=Sound of Destiny -fin de siecle-
TTITLE2=Stilly
TTITLE3=冬のともしび
TTITLE4=Alone Again -Naturally-
TTITLE5=Sound of Destiny -fin de siecle- [off vocal]
EXTD=YEAR: 2000
EXTT0=
EXTT1=
EXTT2=
EXTT3=
EXTT4=
EXTT5=
PLAYORDER=
